<?xml version="1.0" standalone="no"?>
<!DOCTYPE svg PUBLIC "-//W3C//DTD SVG 20010904//EN"
 "http://www.w3.org/TR/2001/REC-SVG-20010904/DTD/svg10.dtd">
<svg version="1.0" xmlns="http://www.w3.org/2000/svg"
 width="1280.000000pt" height="1280.000000pt" viewBox="0 0 1280.000000 1280.000000"
 preserveAspectRatio="xMidYMid meet">
<metadata>
Created by potrace 1.11, written by Peter Selinger 2001-2013
</metadata>
<g transform="translate(0.000000,1280.000000) scale(0.100000,-0.100000)"
fill="#000000" stroke="none">
<path d="M3748 12537 c-21 -12 -62 -41 -91 -64 -29 -24 -112 -69 -185 -102
-145 -65 -206 -105 -276 -182 -130 -143 -196 -285 -287 -623 -71 -263 -67
-256 -219 -374 -47 -37 -87 -69 -90 -72 -3 -3 -39 -34 -80 -70 -41 -35 -153
-142 -249 -237 -96 -95 -178 -173 -182 -173 -24 0 38 160 90 230 36 49 144
183 157 195 22 20 122 152 156 205 50 79 74 152 98 290 36 212 61 252 242 391
77 59 95 80 92 109 -1 8 -2 20 -3 27 -1 15 -59 10 -92 -8 -13 -7 -60 -47 -104
-90 -106 -103 -120 -115 -255 -217 -125 -94 -267 -230 -315 -302 -41 -61 -71
-126 -105 -230 -25 -78 -34 -110 -44 -175 -2 -11 -6 -38 -10 -60 -10 -56 -14
-104 -21 -230 -16 -289 -16 -289 -74 -361 -100 -123 -300 -395 -366 -495 -37
-57 -82 -125 -99 -151 -29 -45 -51 -63 -41 -35 2 6 6 26 9 42 13 79 28 116
128 316 43 86 91 197 108 248 30 92 35 129 45 331 12 217 14 246 30 290 22 63
55 109 153 218 59 65 86 103 88 124 2 16 6 33 9 38 10 16 -12 19 -51 9 -43
-13 -67 -37 -164 -166 -38 -50 -97 -121 -132 -156 -249 -256 -325 -369 -345
-517 -9 -65 -8 -366 3 -500 11 -144 12 -389 1 -453 -9 -57 -15 -74 -66 -180
-21 -45 -54 -113 -71 -152 -18 -38 -48 -104 -67 -145 -48 -103 -88 -205 -134
-335 -21 -60 -42 -111 -47 -113 -13 -4 -6 108 11 188 8 36 30 126 50 201 51
198 60 328 32 489 -23 133 -26 144 -30 160 -7 25 -18 132 -17 180 0 61 33 154
86 244 102 173 149 296 113 296 -19 0 -68 -21 -82 -35 -16 -15 -69 -94 -97
-145 -92 -166 -140 -252 -168 -300 -58 -103 -138 -275 -160 -345 -41 -128 -34
-302 20 -530 12 -49 23 -98 25 -108 2 -10 7 -27 10 -37 3 -10 8 -27 10 -37 12
-59 28 -121 59 -228 61 -212 64 -259 28 -400 -12 -44 -23 -91 -26 -105 -2 -14
-9 -45 -15 -70 -18 -69 -18 -72 -26 -120 -4 -25 -9 -54 -12 -65 -2 -11 -5 -29
-7 -40 -2 -11 -6 -33 -9 -50 -4 -16 -9 -43 -11 -60 -13 -77 -18 -99 -26 -114
-22 -39 -24 76 -5 229 9 72 6 341 -5 382 -15 61 -25 85 -98 243 -83 180 -103
243 -108 334 -3 68 1 87 46 223 44 132 68 256 53 271 -3 3 -22 -7 -43 -21 -43
-30 -80 -103 -118 -227 -11 -38 -37 -122 -56 -186 -105 -344 -121 -517 -65
-716 34 -123 80 -222 304 -647 76 -143 75 -139 60 -341 -10 -130 -10 -332 -1
-465 8 -123 16 -222 21 -287 4 -42 2 -51 -9 -47 -18 7 -52 78 -60 124 -3 19
-8 46 -11 60 -3 14 -7 44 -10 67 -5 41 -9 74 -19 143 -27 184 -76 304 -203
495 -154 233 -177 290 -177 445 0 58 3 146 8 195 16 173 15 178 -29 181 -17 0
-31 -7 -40 -20 -24 -37 -45 -151 -50 -273 -4 -108 -12 -212 -22 -288 -9 -73
-11 -355 -2 -400 24 -129 58 -201 172 -364 67 -97 176 -239 223 -291 54 -60
188 -216 212 -246 38 -47 59 -96 66 -149 7 -52 21 -140 41 -250 5 -24 56 -226
111 -440 4 -17 1 -16 -19 7 -15 16 -42 79 -68 155 -51 154 -97 256 -154 343
-49 75 -63 90 -170 185 -119 107 -184 175 -222 234 -19 29 -36 58 -38 65 -1 6
-7 23 -13 37 -5 14 -13 41 -16 60 -3 19 -8 45 -11 59 -5 24 -22 119 -30 167
-6 37 -15 44 -48 40 -31 -3 -32 -5 -35 -57 -2 -29 4 -90 13 -134 9 -45 19 -90
21 -101 2 -11 8 -42 14 -70 19 -96 35 -187 45 -260 4 -22 8 -47 10 -55 2 -8 7
-31 10 -50 15 -96 62 -208 119 -285 29 -38 157 -168 207 -210 14 -11 49 -41
79 -66 30 -25 127 -101 215 -168 88 -68 163 -128 167 -135 3 -6 27 -67 53
-136 58 -152 101 -250 194 -442 39 -80 71 -155 71 -165 -1 -38 -87 79 -150
205 -152 305 -216 368 -473 466 -162 63 -239 132 -302 276 -34 79 -64 127 -99
159 l-26 24 -1 -24 c-7 -114 10 -167 123 -395 173 -346 274 -485 408 -563 64
-36 396 -202 520 -259 l85 -38 52 -87 c29 -47 53 -88 53 -91 0 -21 339 -501
407 -576 49 -54 96 -110 107 -128 12 -20 -45 6 -89 41 -48 37 -91 85 -165 182
-103 134 -115 149 -163 194 -79 74 -144 109 -282 152 -185 58 -230 77 -311
131 -84 56 -128 103 -191 207 -26 42 -63 97 -84 123 l-36 47 -22 -20 c-28 -26
-31 -80 -9 -129 21 -45 152 -265 160 -268 4 -2 8 -8 8 -13 0 -15 116 -186 178
-262 66 -81 170 -179 215 -201 18 -9 39 -21 47 -26 55 -36 300 -132 585 -230
138 -47 292 -108 317 -125 10 -6 89 -81 176 -166 191 -186 225 -217 372 -340
63 -53 122 -104 129 -113 13 -16 12 -17 -15 -10 -83 20 -168 78 -318 217 -234
218 -304 248 -581 253 -242 3 -249 6 -370 119 -97 90 -141 117 -155 95 -36
-56 -15 -94 131 -240 402 -401 552 -490 859 -515 75 -6 156 -13 238 -20 31 -3
93 -8 137 -10 239 -15 245 -17 455 -157 187 -125 280 -180 515 -308 70 -38 85
-50 65 -51 -8 0 -23 -2 -32 -4 -27 -5 -133 22 -180 46 -39 20 -65 37 -203 134
-56 40 -115 70 -175 91 -14 5 -124 9 -245 10 -237 0 -304 6 -405 34 -94 26
-145 50 -238 114 -46 32 -91 56 -100 54 -9 -2 -19 -14 -22 -28 -13 -49 12 -83
120 -164 30 -22 57 -43 60 -46 17 -17 266 -190 274 -190 2 0 33 -17 67 -39
126 -76 216 -110 359 -137 41 -7 203 -7 240 1 28 6 125 12 310 20 69 3 161 8
205 12 135 12 186 7 256 -25 35 -17 80 -37 99 -45 19 -8 53 -23 75 -33 22 -9
42 -18 45 -19 3 -1 14 -5 25 -9 11 -5 56 -21 100 -38 44 -16 89 -34 100 -38
11 -5 72 -25 135 -45 158 -50 169 -55 164 -69 -5 -14 -4 -14 -99 -17 -87 -2
-147 15 -295 84 -63 30 -128 58 -145 62 -16 5 -37 10 -45 12 -34 9 -109 4
-165 -12 -209 -58 -212 -58 -425 -59 -121 0 -208 7 -247 20 -10 4 -69 29 -131
56 -120 53 -142 53 -142 3 0 -47 168 -148 367 -221 299 -109 462 -156 588
-169 65 -7 212 -8 223 -1 4 2 30 6 57 10 56 6 227 40 290 57 22 6 45 12 50 13
21 4 211 69 220 76 15 10 109 45 116 43 4 -1 18 -4 33 -7 14 -3 34 -7 44 -10
9 -3 28 -7 42 -10 14 -2 70 -14 125 -26 55 -11 111 -22 125 -25 163 -26 346
-54 400 -60 76 -9 125 -17 129 -21 6 -5 -61 -32 -100 -40 -57 -11 -90 -8 -224
19 -234 49 -254 45 -498 -92 -51 -29 -206 -68 -298 -76 -41 -3 -87 -8 -103
-11 -64 -11 -166 -6 -266 12 -14 3 -54 7 -90 10 -54 5 -63 4 -52 -7 6 -7 12
-21 12 -30 0 -10 7 -25 16 -33 14 -15 101 -45 147 -51 12 -1 45 -6 72 -9 28
-4 64 -9 80 -11 17 -2 77 -14 135 -25 58 -11 121 -23 140 -26 35 -5 61 -9 110
-19 14 -3 84 -8 155 -12 111 -5 208 2 280 21 151 38 507 230 644 348 8 7 43
14 78 16 86 6 85 -9 -9 -70 -48 -32 -163 -122 -247 -193 -40 -35 -121 -112
-276 -264 -163 -160 -202 -193 -285 -239 -105 -58 -216 -85 -362 -86 -43 -1
-78 -4 -78 -8 0 -15 272 -93 400 -114 72 -12 90 -14 150 -20 36 -4 119 -8 184
-8 l120 -1 8 30 c5 17 11 41 14 54 17 82 133 394 153 411 3 3 14 21 23 40 97
194 274 374 425 430 60 22 80 21 148 -9 232 -103 472 -459 570 -847 13 -52 27
-99 31 -105 5 -8 53 -10 168 -6 89 3 171 8 183 11 11 2 43 8 70 11 112 16 439
102 428 113 -2 3 -42 6 -87 8 -138 6 -229 27 -327 79 -83 44 -124 79 -287 240
-235 234 -432 404 -571 494 -29 18 -53 37 -53 42 0 5 27 9 61 8 43 -2 67 -8
85 -22 129 -101 481 -290 629 -338 105 -34 314 -32 565 6 31 4 326 52 375 61
104 17 146 31 192 61 l42 27 -17 28 c-19 33 -9 32 -113 12 -90 -17 -282 -23
-389 -11 -120 12 -221 45 -369 120 -139 69 -147 72 -220 73 -46 1 -126 -8
-201 -22 -145 -29 -194 -30 -267 -7 -46 14 -69 31 -45 34 4 0 16 3 27 5 34 9
59 12 141 18 74 6 291 37 359 51 37 8 253 54 278 60 9 2 21 6 27 10 21 13 78
7 121 -13 139 -64 269 -106 419 -138 41 -9 84 -18 95 -20 11 -3 38 -7 60 -10
22 -3 51 -8 65 -11 59 -11 192 -11 275 2 118 18 281 68 507 156 235 91 333
138 392 190 l47 42 -22 23 c-12 13 -27 24 -31 24 -5 0 -59 -23 -119 -51 -151
-70 -179 -76 -370 -77 -181 -1 -213 3 -374 49 -166 48 -199 45 -370 -31 -127
-56 -200 -84 -259 -96 -43 -9 -132 -6 -161 6 l-30 12 33 14 c18 7 52 19 75 26
48 13 42 12 87 22 19 5 41 12 50 17 8 5 67 27 130 50 63 23 129 47 145 54 79
33 171 70 175 70 3 0 32 14 65 30 58 29 65 30 190 29 72 0 182 -4 245 -8 63
-4 135 -9 160 -11 25 -1 101 -6 170 -11 135 -8 230 -8 270 0 60 12 76 16 124
32 121 40 247 114 560 334 120 84 152 113 178 164 l20 40 -22 18 c-12 10 -26
18 -30 18 -4 0 -57 -31 -118 -70 -71 -44 -132 -74 -169 -84 -59 -14 -234 -44
-265 -44 -10 -1 -84 -1 -165 -1 -215 1 -219 0 -286 -24 -53 -20 -201 -107
-217 -128 -18 -23 -145 -93 -200 -109 -76 -23 -162 -32 -157 -17 3 10 24 22
187 110 41 22 120 68 175 102 55 33 111 68 124 76 14 8 30 17 35 22 45 33 230
158 244 165 19 10 82 21 152 27 57 5 188 15 260 20 124 9 214 17 229 20 9 1
41 6 71 10 162 22 272 63 385 143 171 123 472 401 539 500 25 36 28 48 20 70
-19 56 -56 42 -174 -67 -30 -28 -84 -65 -119 -83 l-64 -32 -179 -2 c-186 -3
-247 -13 -333 -56 -54 -27 -166 -113 -240 -183 -130 -124 -258 -213 -328 -229
l-29 -7 19 24 c9 13 46 45 80 72 34 26 73 57 86 69 13 11 45 39 73 61 27 22
134 123 237 225 104 102 198 190 210 197 13 6 99 39 192 73 430 155 653 242
722 282 148 84 247 204 472 567 86 139 118 206 121 256 4 59 1 65 -29 65 -36
0 -57 -23 -140 -158 -34 -55 -73 -112 -88 -127 -52 -52 -189 -133 -278 -164
-49 -18 -90 -32 -90 -31 0 1 -27 -6 -60 -15 -163 -47 -284 -145 -428 -348 -64
-90 -143 -170 -195 -196 -23 -12 -42 -19 -42 -15 0 3 28 41 63 83 124 149 367
494 417 590 7 14 17 30 22 35 5 6 30 47 56 91 l47 80 151 75 c83 41 218 107
300 147 206 99 293 170 397 326 88 131 258 498 288 619 11 48 6 98 -11 98 -18
0 -69 -65 -86 -110 -68 -182 -154 -267 -344 -339 -242 -93 -305 -156 -465
-469 -37 -73 -82 -146 -99 -163 -56 -55 -48 -31 89 256 56 118 155 359 155
378 0 5 9 28 21 51 16 31 57 69 167 153 81 62 159 123 173 135 15 13 48 41 74
63 191 160 273 249 310 329 35 77 101 320 110 401 2 28 7 61 10 75 2 14 7 39
10 55 3 17 7 41 10 55 15 73 37 209 42 263 5 49 3 62 -11 73 -44 32 -62 -3
-101 -196 -40 -198 -85 -273 -240 -405 -216 -183 -272 -267 -370 -545 -49
-138 -94 -238 -95 -209 0 9 9 54 21 100 11 46 23 91 25 99 6 25 34 144 39 170
4 14 12 52 20 85 7 33 16 78 19 100 4 22 9 54 11 70 3 17 7 47 9 68 8 72 39
141 85 188 60 61 223 256 343 410 132 170 222 330 247 440 10 42 7 379 -4 444
-2 17 -7 66 -9 110 -14 209 -22 297 -32 327 -2 9 -7 27 -9 40 -12 63 -18 78
-28 79 -51 5 -60 3 -64 -16 -5 -26 -3 -151 2 -190 3 -16 8 -76 11 -131 6 -87
4 -111 -15 -172 -26 -88 -73 -175 -171 -322 -43 -63 -88 -135 -100 -160 -20
-39 -82 -210 -80 -218 1 -1 -4 -26 -9 -55 -17 -82 -21 -99 -27 -147 -3 -25 -8
-52 -9 -62 -2 -9 -7 -38 -10 -65 -13 -92 -46 -183 -68 -183 -4 0 -6 24 -3 53
6 59 15 172 21 267 5 83 5 469 0 535 -13 161 -15 152 57 296 37 74 93 181 124
239 70 128 153 312 183 402 16 49 23 94 24 160 1 87 -9 234 -17 247 -2 3 -7
29 -10 56 -22 165 -136 529 -203 643 -20 35 -27 41 -39 31 -7 -6 -21 -9 -30
-5 -25 9 -10 -73 42 -232 79 -239 75 -282 -51 -547 -117 -245 -134 -348 -111
-640 15 -190 14 -245 -5 -245 -4 0 -11 21 -14 48 -3 26 -8 63 -11 82 -2 19 -9
64 -15 100 -6 36 -13 79 -15 95 -3 17 -26 116 -51 220 -25 105 -47 214 -47
244 -2 38 12 104 46 225 48 169 94 341 104 387 2 13 9 47 14 74 6 28 13 61 16
75 26 123 25 323 -4 415 -11 39 -22 73 -22 77 -2 14 -87 183 -120 238 -18 30
-60 107 -93 170 -133 255 -201 350 -247 344 -14 -1 -26 -3 -27 -4 -2 -2 -9 -3
-15 -4 -27 -3 1 -68 102 -236 93 -154 114 -212 112 -310 -1 -52 -37 -305 -46
-319 -20 -31 -24 -235 -7 -331 16 -95 17 -101 40 -176 36 -123 63 -247 67
-314 4 -56 3 -63 -10 -50 -8 8 -29 53 -46 100 -49 132 -120 309 -152 378 -33
74 -76 166 -130 282 -22 47 -47 108 -55 135 -21 68 -20 275 2 475 20 188 23
412 5 511 -24 132 -99 248 -288 444 -126 131 -161 171 -193 220 -14 22 -49 68
-78 103 -49 59 -54 62 -96 62 -25 0 -45 -4 -45 -9 0 -29 39 -89 119 -180 50
-57 100 -123 111 -146 33 -68 51 -178 55 -343 8 -277 24 -335 169 -617 46 -89
91 -182 99 -206 21 -60 29 -119 17 -119 -7 0 -108 143 -155 221 -31 51 -263
369 -285 389 -3 3 -18 23 -35 45 -16 22 -31 42 -34 45 -45 40 -49 57 -56 210
-16 381 -48 545 -137 725 -85 172 -139 230 -387 422 -63 48 -160 130 -215 181
-105 99 -132 117 -182 125 -40 6 -58 -5 -50 -31 10 -30 51 -70 141 -136 66
-49 124 -115 149 -169 24 -51 52 -156 54 -207 3 -53 43 -184 74 -243 33 -63
126 -188 193 -262 57 -62 159 -195 188 -247 22 -38 62 -168 52 -168 -1 0 -69
67 -151 148 -152 151 -357 338 -496 450 -84 69 -114 104 -122 146 -3 15 -11
49 -19 74 -8 26 -19 65 -25 87 -118 437 -242 656 -435 765 -34 20 -92 48 -129
64 -72 30 -131 64 -236 138 -63 44 -121 66 -142 53 -18 -11 20 -79 79 -139 46
-48 73 -91 129 -206 104 -212 197 -325 408 -495 65 -53 176 -164 196 -195 8
-14 18 -37 22 -52 5 -23 4 -27 -11 -21 -10 3 -27 14 -38 23 -48 42 -365 240
-475 296 -29 15 -74 62 -154 159 -189 231 -383 365 -631 436 -38 12 -83 23
-99 25 -16 2 -45 8 -65 13 -20 5 -61 12 -91 15 -30 4 -77 9 -105 12 -69 8
-399 8 -460 0 -27 -3 -75 -10 -105 -16 -30 -5 -70 -11 -88 -14 -56 -8 -142
-68 -142 -99 0 -9 69 -19 170 -23 58 -3 127 -9 155 -15 103 -20 249 -124 465
-331 43 -40 170 -132 215 -155 151 -77 360 -95 660 -58 126 16 144 15 180 -5
19 -11 50 -29 69 -39 82 -47 201 -121 320 -198 128 -85 148 -99 215 -159 l35
-32 -44 -9 c-57 -12 -131 -7 -195 13 -47 15 -82 33 -273 136 -75 41 -189 87
-232 94 -14 3 -31 7 -39 10 -18 6 -164 6 -208 0 -17 -3 -58 -9 -90 -15 -32 -5
-80 -13 -108 -16 -27 -3 -66 -8 -85 -11 -19 -3 -138 -7 -264 -10 -149 -2 -232
-8 -236 -15 -11 -17 1 -58 19 -63 17 -5 112 -20 194 -31 65 -8 127 -30 188
-66 27 -16 52 -29 54 -29 2 0 44 -21 92 -48 48 -26 124 -63 168 -82 l80 -35
180 1 c99 1 223 4 275 8 52 3 138 8 190 11 247 16 506 21 538 11 12 -4 22 -12
22 -17 0 -5 5 -9 11 -9 10 0 68 -48 179 -145 25 -22 138 -134 252 -248 190
-190 249 -259 234 -274 -10 -11 -121 17 -176 44 -49 23 -146 91 -182 126 -90
89 -271 208 -338 223 -113 26 -166 32 -320 39 -63 3 -135 7 -160 10 -25 2 -74
7 -110 10 -36 3 -73 8 -82 11 -9 3 -25 6 -35 8 -10 2 -46 11 -81 20 -60 16
-125 28 -167 30 -15 1 -19 -5 -17 -22 4 -41 29 -55 224 -126 49 -18 107 -54
155 -96 183 -160 328 -260 398 -274 58 -12 242 -41 320 -51 28 -4 61 -8 75
-10 46 -7 205 -28 240 -31 19 -2 64 -8 100 -13 36 -6 83 -13 105 -15 80 -11
163 -30 205 -48 57 -24 452 -609 527 -780 l12 -28 -50 19 c-59 23 -124 74
-170 133 -19 24 -36 45 -39 48 -3 3 -32 39 -64 80 -166 210 -253 260 -606 349
-273 70 -279 71 -430 144 -63 30 -126 58 -139 62 -23 7 -24 6 -18 -31 8 -45
21 -57 134 -119 106 -59 133 -86 348 -342 142 -170 113 -154 505 -289 295
-103 366 -129 508 -187 l124 -50 57 -117 c109 -219 225 -518 280 -720 25 -88
24 -80 8 -80 -46 0 -143 129 -247 325 -93 178 -155 256 -255 325 -26 18 -143
81 -259 139 -216 109 -343 185 -454 274 l-64 50 -26 -26 -26 -26 112 -112
c116 -116 155 -171 252 -354 59 -111 123 -207 166 -246 23 -20 216 -147 311
-204 94 -56 376 -241 462 -302 l109 -77 26 -125 c15 -70 28 -137 31 -151 3
-14 7 -36 10 -50 3 -14 7 -43 11 -65 3 -22 7 -52 10 -67 10 -69 13 -86 18
-128 21 -180 19 -204 -15 -162 -29 35 -48 81 -99 232 -109 327 -157 385 -529
635 -158 106 -223 166 -261 238 -8 16 -25 39 -39 53 -52 52 -44 -29 15 -155
19 -40 46 -119 60 -175 38 -153 81 -271 127 -350 44 -73 183 -222 292 -311 33
-27 65 -53 70 -59 6 -6 42 -38 80 -71 90 -77 74 -62 210 -194 l117 -113 7 -57
c13 -115 1 -516 -24 -766 -10 -100 -22 -110 -54 -47 -33 64 -42 120 -46 271
-8 293 -53 378 -363 691 -192 193 -211 220 -247 343 -9 31 -20 57 -24 57 -16
0 -31 -56 -27 -101 3 -25 12 -70 21 -100 17 -59 22 -96 30 -237 5 -107 38
-245 66 -280 10 -14 19 -29 19 -33 0 -5 47 -69 103 -142 133 -170 228 -302
362 -505 131 -198 127 -174 71 -458 -17 -86 -113 -427 -154 -548 -35 -102 -65
-54 -63 99 1 55 3 114 6 130 2 17 6 57 9 90 3 33 9 71 12 85 3 14 8 58 9 98 6
122 -37 225 -206 493 -158 252 -171 279 -171 352 0 82 -4 97 -30 92 -31 -6
-33 -11 -34 -77 -2 -99 -20 -277 -30 -308 -11 -31 -13 -267 -3 -310 5 -25 43
-112 83 -195 41 -82 92 -193 114 -245 87 -212 202 -507 207 -535 4 -18 0 -45
-11 -70 -10 -22 -18 -44 -20 -50 -9 -44 -200 -441 -278 -580 -99 -173 -99
-173 -99 -24 0 49 38 178 64 214 12 18 60 179 67 225 17 122 -2 238 -69 428
-17 48 -38 105 -45 127 -8 22 -18 49 -23 60 -29 65 -90 242 -86 247 2 2 6 43
10 92 l7 88 -23 -7 c-13 -4 -28 -11 -32 -15 -5 -4 -20 -64 -33 -134 -14 -70
-42 -175 -63 -234 -21 -59 -44 -132 -50 -162 -45 -221 -44 -278 8 -435 22 -66
42 -131 44 -145 3 -14 14 -57 26 -95 37 -125 91 -358 104 -450 l13 -90 -50
-70 c-41 -59 -162 -225 -188 -260 -83 -111 -260 -325 -308 -375 -51 -52 -65
-61 -68 -46 -7 34 40 156 110 278 90 160 136 259 150 321 13 61 5 220 -17 342
-9 50 -18 101 -20 115 -2 14 -4 25 -5 25 -1 0 -3 9 -4 20 -2 11 -7 45 -11 75
-16 104 -13 231 7 302 10 37 18 70 18 72 0 3 -13 0 -30 -5 -31 -11 -61 -63
-94 -165 -9 -28 -33 -78 -52 -110 -106 -174 -203 -438 -220 -594 -5 -50 -5
-231 1 -300 2 -25 6 -83 9 -129 4 -46 8 -87 10 -90 2 -3 7 -55 11 -116 4 -60
10 -129 15 -153 8 -43 7 -43 -49 -96 -104 -100 -156 -148 -215 -199 -33 -29
-70 -62 -83 -74 -13 -11 -42 -36 -65 -55 -23 -18 -46 -38 -52 -43 -41 -38
-234 -175 -247 -175 -11 0 1 69 21 114 24 57 143 211 255 330 71 75 128 177
140 246 3 19 8 49 12 65 3 17 7 37 8 45 1 8 5 43 9 78 5 34 9 135 11 225 4
175 15 230 59 298 30 44 32 58 11 85 -14 18 -15 18 -40 -11 -14 -16 -47 -66
-74 -110 -28 -44 -62 -94 -78 -110 -61 -67 -122 -143 -156 -197 -21 -32 -52
-82 -70 -110 -86 -135 -146 -293 -162 -428 -3 -30 -8 -62 -10 -70 -3 -8 -7
-37 -10 -65 -2 -27 -7 -70 -10 -95 -3 -25 -7 -65 -10 -90 -18 -155 -33 -252
-43 -279 -4 -10 -25 -33 -47 -50 -22 -17 -44 -34 -50 -38 -5 -5 -41 -28 -80
-52 -38 -24 -86 -54 -105 -66 -120 -77 -414 -228 -464 -239 l-29 -7 18 28 c17
26 35 43 104 102 13 12 56 42 95 68 39 27 76 53 83 58 6 6 37 28 68 50 100 70
148 174 251 537 36 128 74 263 85 299 13 44 36 90 69 135 28 38 50 72 50 76 0
13 -39 9 -69 -6 -15 -8 -47 -38 -72 -67 -60 -71 -60 -71 -147 -136 -252 -190
-382 -393 -522 -813 -63 -191 -136 -362 -173 -412 -8 -9 -65 -38 -128 -63 -63
-25 -123 -50 -134 -55 -11 -5 -69 -27 -130 -48 -303 -109 -546 -171 -545 -138
1 37 92 103 245 176 403 192 440 225 550 495 53 129 120 255 161 303 19 23 66
65 104 93 38 28 68 55 65 58 -2 4 0 13 5 20 5 8 3 19 -3 26 -21 22 -92 -9
-228 -100 -46 -31 -131 -80 -189 -108 -193 -93 -264 -146 -365 -272 -22 -28
-42 -52 -45 -55 -15 -14 -119 -162 -270 -383 -78 -116 -248 -310 -288 -331
-15 -8 -63 -21 -107 -30 -76 -14 -104 -19 -200 -31 -22 -3 -49 -7 -60 -9 -11
-2 -49 -7 -85 -11 -36 -4 -74 -9 -85 -11 -39 -8 -170 -12 -187 -6 -14 6 -13
11 10 37 32 36 112 73 237 110 310 94 374 135 504 324 33 49 61 92 61 95 0 13
98 145 139 187 14 14 58 47 98 73 62 40 103 81 103 101 0 6 -65 1 -105 -9 -11
-2 -72 -22 -135 -44 -112 -39 -208 -69 -246 -76 -231 -46 -311 -111 -634 -511
-155 -193 -236 -279 -278 -296 -13 -5 -81 -9 -152 -9 -125 0 -129 1 -161 28
-58 48 -114 105 -173 177 -67 81 -58 70 -156 200 -75 100 -228 262 -285 301
-61 42 -137 75 -233 100 -133 34 -252 70 -347 104 -44 16 -104 32 -134 36
l-54 7 19 -26 c10 -14 52 -47 92 -73 97 -63 140 -112 256 -289 168 -255 222
-294 545 -399 165 -54 211 -75 240 -112 27 -34 20 -44 -27 -40 -20 2 -77 7
-127 11 -49 4 -128 13 -174 20 -46 8 -87 13 -90 13 -3 -1 -28 2 -56 7 -27 5
-54 9 -60 10 -5 0 -46 7 -89 15 -77 13 -81 15 -149 79 -92 87 -174 191 -309
391 -171 253 -213 307 -317 410 -90 89 -106 100 -244 170 -82 41 -196 105
-255 142 -93 60 -197 106 -210 94 -2 -3 4 -21 14 -42 11 -22 46 -59 90 -93 89
-69 139 -147 223 -348 70 -166 97 -215 158 -283 54 -60 119 -100 336 -208 238
-117 317 -170 314 -210 -2 -26 5 -26 -87 -1 -41 11 -100 27 -130 35 -97 26
-411 134 -540 186 -77 31 -138 62 -158 82 -54 50 -98 147 -220 491 -88 246
-115 308 -179 404 -62 94 -234 271 -348 360 -39 30 -90 79 -115 109 -50 60
-89 85 -126 80 -24 -3 -23 -5 30 -74 44 -58 61 -92 86 -171 17 -55 32 -110 35
-122 2 -12 7 -31 10 -41 3 -10 8 -27 10 -37 2 -10 19 -74 38 -143 68 -245 135
-390 207 -449 25 -21 97 -72 160 -114 122 -81 171 -121 207 -170 26 -36 22
-50 -12 -37 -149 57 -662 355 -723 420 -27 30 -40 98 -58 305 -2 33 -6 71 -8
85 -8 47 -15 105 -22 160 -3 30 -15 102 -26 160 -36 191 -196 478 -355 638
-18 18 -62 77 -97 131 -35 54 -77 108 -94 120 l-31 22 3 -33 c2 -19 17 -61 34
-94 45 -89 49 -117 52 -370 3 -218 21 -326 71 -425 16 -33 89 -128 134 -175
70 -74 175 -208 175 -223 0 -6 4 -11 9 -11 13 0 71 -133 71 -164 l0 -28 -37
23 c-53 32 -197 141 -257 194 -6 6 -31 28 -56 49 -78 68 -252 229 -314 289
l-58 58 6 62 c3 34 8 80 11 102 29 238 39 578 21 690 -5 28 -10 63 -12 79 -5
38 -42 167 -54 188 -6 10 -10 23 -10 29 0 23 -90 197 -151 294 -14 22 -33 69
-43 105 -22 81 -49 126 -87 146 -29 14 -29 14 -24 -8 33 -144 36 -166 30 -237
-3 -42 -8 -83 -10 -91 -2 -8 -7 -40 -11 -70 -4 -30 -8 -65 -9 -77 -2 -11 -5
-29 -8 -40 -3 -10 -9 -43 -12 -73 -3 -30 -8 -62 -10 -70 -8 -31 -18 -147 -18
-200 1 -80 39 -179 134 -346 93 -166 127 -242 135 -311 l6 -48 -43 46 c-77 81
-112 121 -217 252 -99 125 -282 372 -282 381 0 3 -17 30 -39 60 l-38 55 12 63
c58 293 117 532 178 723 32 100 35 118 32 205 -4 101 -29 214 -89 410 -20 63
-41 149 -47 192 -12 76 -52 168 -76 175 -9 3 -12 -21 -11 -89 2 -124 -4 -151
-74 -352 -141 -403 -140 -397 -145 -487 -3 -51 -1 -107 6 -135 7 -27 12 -53
13 -59 2 -19 46 -140 83 -230 32 -76 38 -102 39 -173 3 -112 -6 -115 -55 -22
-13 25 -29 52 -35 60 -14 18 -169 322 -206 405 -62 137 -109 262 -110 290 -1
40 0 44 77 245 79 204 107 269 225 525 49 105 92 213 97 240 12 65 7 237 -12
420 -6 55 -18 214 -19 248 -1 15 -3 27 -7 27 -13 0 -49 -42 -50 -58 -4 -112
-19 -145 -152 -355 -122 -190 -202 -335 -212 -385 -2 -9 -10 -36 -18 -59 -14
-41 -15 -104 -1 -146 7 -22 10 -37 19 -117 3 -25 8 -58 10 -75 9 -60 6 -261
-4 -288 -15 -39 -40 -31 -56 18 -106 335 -166 583 -191 790 -5 50 -5 50 93
200 82 124 233 340 265 380 46 55 177 231 202 270 69 108 101 227 112 418 3
56 14 136 24 177 18 73 23 112 21 158 -1 23 -1 23 -25 5 -15 -11 -33 -43 -46
-82 -28 -86 -56 -123 -219 -291 -230 -237 -245 -253 -278 -303 -32 -50 -67
-143 -77 -207 -6 -34 -11 -106 -20 -282 -4 -68 -12 -101 -35 -152 -16 -36 -34
-66 -39 -66 -15 0 -28 86 -37 240 -12 203 -14 262 -15 460 l-1 205 38 33 c21
19 81 75 134 125 86 83 209 195 270 248 319 272 386 368 455 653 37 152 45
176 76 239 16 32 32 82 35 110 l6 52 -24 -16 c-13 -8 -39 -44 -58 -80 -42 -78
-83 -113 -330 -279 -306 -205 -342 -253 -462 -613 -22 -65 -49 -137 -60 -160
-37 -74 -76 -103 -65 -49 3 15 8 47 11 72 3 25 8 65 11 90 3 25 7 56 9 70 2
14 7 45 10 70 9 68 54 315 70 384 11 45 23 69 47 91 28 26 165 120 308 210 19
13 68 43 108 69 40 25 77 46 82 46 6 0 10 5 10 10 0 6 4 10 9 10 21 0 319 194
350 228 47 52 99 133 150 232 80 156 136 243 184 289 161 152 164 155 163 199
l0 41 -26 -16 c-14 -9 -54 -36 -90 -61 -145 -102 -183 -124 -336 -200 -87 -44
-177 -87 -199 -98 -64 -29 -208 -120 -240 -151 -60 -59 -122 -155 -225 -348
-64 -121 -109 -187 -148 -217 -59 -46 -63 -38 -35 65 14 50 43 142 65 202 21
61 40 115 42 120 7 23 79 200 109 265 13 30 39 89 57 130 18 41 39 82 47 91
13 16 139 76 173 83 3 1 50 18 105 38 55 20 226 82 380 138 154 55 298 112
320 125 45 27 113 90 164 150 185 220 242 276 335 333 123 75 146 97 146 138
0 19 -2 34 -4 34 -2 0 -39 -16 -82 -36 -112 -51 -131 -58 -209 -87 -83 -31
-199 -67 -235 -73 -14 -3 -34 -8 -45 -11 -11 -4 -24 -8 -30 -9 -134 -29 -205
-54 -310 -107 -60 -31 -101 -62 -166 -126 -47 -48 -99 -104 -115 -126 -96
-131 -211 -234 -286 -255 -34 -10 -34 -10 -7 42 100 195 493 759 538 772 17 5
74 14 127 20 17 2 64 9 105 15 41 7 90 13 109 15 46 5 187 25 225 32 17 3 44
7 60 9 17 2 113 15 215 30 216 32 275 55 401 158 294 239 265 221 447 282
l112 38 0 39 c0 47 0 47 -140 12 -145 -35 -166 -39 -290 -49 -72 -6 -187 -16
-225 -21 -16 -2 -70 -6 -120 -9 -106 -8 -125 -10 -145 -18 -8 -3 -35 -12 -60
-19 -77 -22 -163 -76 -308 -191 -195 -156 -304 -210 -370 -186 -21 8 -20 10
25 61 54 61 326 333 393 393 25 23 96 85 158 140 l114 98 121 -2 c137 -2 234
-6 387 -16 58 -4 125 -9 150 -10 25 -2 144 -6 265 -10 l220 -7 75 27 c66 24
130 55 320 157 62 33 149 69 174 73 12 2 44 7 71 11 28 4 55 9 60 9 82 8 179
61 152 83 -7 6 -85 9 -186 8 -175 -2 -281 6 -401 29 -14 2 -47 7 -75 11 -27 3
-66 9 -86 14 -21 4 -93 7 -160 6 -164 -3 -217 -21 -489 -172 -71 -39 -136 -68
-170 -74 -71 -14 -192 -15 -215 -3 -15 9 -9 16 41 55 208 158 617 402 661 394
29 -6 131 -18 183 -21 25 -2 68 -6 95 -10 101 -15 231 -8 335 17 63 15 214 92
274 139 53 43 140 119 222 196 101 94 211 169 291 197 54 19 86 24 214 31 146
9 144 8 141 36 -5 46 -29 67 -89 80 -32 7 -62 14 -68 15 -5 1 -30 5 -55 8 -25
4 -56 9 -70 11 -115 20 -369 26 -507 12 -395 -38 -767 -236 -998 -532 -61 -79
-139 -155 -157 -155 -15 0 -165 -88 -310 -183 -210 -138 -215 -139 -177 -65
31 62 56 89 172 185 244 205 370 364 458 577 16 39 48 85 93 135 71 79 106
127 106 149 0 20 -62 14 -102 -11z m-1803 -9147 c10 -11 16 -20 13 -20 -3 0
-13 9 -23 20 -10 11 -16 20 -13 20 3 0 13 -9 23 -20z m760 -758 c-3 -3 -11 0
-18 7 -9 10 -8 11 6 5 10 -3 15 -9 12 -12z m5485 -1046 c0 -3 -4 -8 -10 -11
-5 -3 -10 -1 -10 4 0 6 5 11 10 11 6 0 10 -2 10 -4z"/>
<path d="M6276 11002 c-3 -5 -5 -141 -4 -301 0 -160 -2 -294 -5 -297 -3 -3
-59 66 -125 155 -138 185 -214 280 -224 280 -5 1 -8 -146 -8 -326 -2 -801 0
-1200 4 -1221 3 -13 74 -116 159 -230 84 -114 163 -221 175 -239 21 -30 22
-42 20 -163 l-3 -131 -87 64 c-130 96 -261 157 -393 182 -22 5 -47 10 -55 12
-94 20 -193 28 -614 48 -120 5 -231 15 -366 31 -32 4 -107 17 -169 29 -136 26
-320 86 -441 143 -203 95 -298 193 -344 353 -9 31 -27 65 -39 76 -62 56 -187
85 -270 62 -56 -15 -129 -91 -146 -150 -25 -88 2 -194 68 -265 16 -17 32 -33
37 -35 20 -9 124 -71 124 -75 0 -5 -74 -172 -115 -260 -19 -41 -35 -76 -35
-78 0 -2 -15 -37 -34 -78 -19 -40 -50 -109 -69 -153 -19 -44 -46 -105 -60
-135 -13 -30 -34 -75 -45 -100 -56 -125 -113 -252 -140 -310 -26 -59 -60 -133
-97 -215 -152 -335 -325 -716 -351 -773 -19 -41 -34 -75 -34 -77 0 -1 -23 -52
-51 -111 -28 -60 -71 -152 -94 -204 -56 -123 -108 -235 -155 -335 -21 -44 -57
-120 -80 -170 -66 -140 -151 -309 -161 -319 -15 -16 -11 -22 54 -87 188 -188
450 -355 723 -462 88 -35 241 -82 297 -91 15 -3 35 -7 45 -10 20 -6 64 -14
112 -21 19 -3 46 -7 60 -10 114 -23 462 -23 600 -1 14 3 59 10 100 16 41 6
102 19 135 27 33 8 67 16 75 18 63 13 259 89 375 145 219 105 402 234 559 394
59 60 66 71 50 77 -36 13 -64 55 -117 175 -60 133 -91 201 -148 322 -22 46
-39 85 -39 87 0 2 -21 47 -46 102 -26 54 -61 132 -79 173 -18 41 -47 107 -65
145 -17 39 -38 84 -45 100 -7 17 -29 64 -48 105 -28 61 -246 541 -343 758 -13
28 -36 78 -50 110 -15 31 -61 134 -104 228 -43 94 -90 196 -104 227 -47 102
-73 161 -119 262 -25 55 -59 130 -76 168 -116 253 -135 296 -129 302 2 3 36
-2 74 -10 38 -9 116 -24 174 -35 58 -11 114 -22 125 -24 11 -2 47 -9 80 -15
63 -12 77 -14 160 -30 28 -6 64 -12 80 -15 17 -3 40 -7 51 -10 12 -2 37 -7 55
-10 58 -10 258 -52 342 -72 9 -2 26 -6 36 -8 315 -70 670 -197 885 -316 222
-123 402 -300 470 -464 15 -35 16 -245 16 -2357 0 -1276 -2 -2319 -4 -2319 -3
0 -51 25 -108 55 -175 94 -207 109 -213 103 -5 -5 12 -45 73 -178 11 -25 68
-151 126 -280 57 -129 124 -278 149 -330 24 -52 54 -116 66 -142 11 -26 25
-49 29 -52 13 -8 52 23 52 40 0 8 68 162 151 342 83 180 155 336 159 347 4 11
18 43 30 70 41 92 80 185 80 191 0 5 -178 -84 -258 -130 -45 -25 -64 -32 -68
-23 -6 17 2 4603 8 4639 10 56 108 199 192 281 47 46 189 157 200 157 3 0 21
11 41 24 69 47 240 126 400 184 96 35 162 55 420 126 82 23 483 109 615 132
14 3 63 12 110 21 47 9 92 17 100 18 8 1 40 7 70 13 259 56 385 80 389 77 2
-3 -4 -24 -14 -47 -10 -24 -26 -61 -36 -83 -17 -41 -142 -317 -197 -435 -16
-36 -84 -186 -152 -335 -67 -148 -138 -303 -156 -343 -19 -41 -34 -75 -34 -77
0 -2 -22 -50 -48 -107 -27 -56 -56 -119 -64 -138 -29 -65 -170 -375 -204 -448
-19 -41 -34 -76 -34 -78 0 -2 -15 -36 -34 -76 -19 -40 -88 -192 -154 -338
-304 -670 -336 -735 -375 -749 -12 -5 -25 -7 -29 -4 -5 2 -8 0 -8 -5 0 -13
152 -156 233 -220 148 -115 350 -234 522 -305 150 -62 380 -126 514 -142 30
-4 63 -9 75 -11 39 -8 180 -16 276 -16 193 -1 356 18 530 61 25 7 54 14 65 16
83 18 270 88 385 142 127 61 358 206 426 268 6 5 33 29 60 52 27 23 71 62 98
86 l50 46 -33 58 c-17 32 -81 157 -140 278 -103 209 -142 290 -216 450 -18 39
-47 102 -65 140 -18 39 -45 97 -60 130 -15 33 -49 104 -74 159 -25 54 -46 100
-46 102 0 2 -21 47 -46 101 -25 54 -87 188 -136 298 -50 110 -104 229 -120
265 -17 36 -50 110 -75 165 -25 55 -55 123 -68 150 -27 61 -44 98 -130 290
-37 83 -75 168 -85 190 -107 229 -250 561 -247 570 3 6 31 24 63 40 79 41 127
91 153 159 25 67 26 114 6 183 -31 105 -95 148 -220 147 -66 0 -89 -4 -130
-26 -65 -34 -92 -64 -101 -113 -9 -54 -59 -154 -93 -191 -61 -64 -137 -117
-249 -173 -61 -31 -240 -95 -292 -105 -14 -2 -47 -10 -75 -16 -101 -24 -140
-30 -295 -49 -175 -21 -269 -29 -585 -46 -284 -16 -391 -33 -550 -88 -69 -23
-210 -102 -269 -150 -71 -58 -67 -63 -65 85 l1 133 61 85 c34 47 114 156 179
243 65 88 118 166 119 175 5 86 2 1542 -3 1542 -12 0 -104 -114 -203 -249 -53
-74 -110 -148 -126 -165 l-29 -31 -1 290 c0 160 0 297 0 306 0 15 -17 17 -124
18 -68 1 -126 -2 -129 -7z m155 -150 c5 -2 5 -217 0 -257 0 -6 -14 -12 -30
-13 -26 -2 -29 2 -35 33 -7 35 -7 225 0 236 3 5 46 5 65 1z m-290 -492 c130
-176 129 -174 129 -252 0 -38 -4 -68 -9 -68 -5 0 -35 37 -67 83 -32 45 -63 87
-69 92 -7 6 -33 40 -59 77 -47 67 -51 80 -47 176 2 48 16 36 122 -108z m634
69 c3 -60 -13 -104 -53 -151 -16 -18 -60 -76 -100 -129 -92 -124 -104 -130
-99 -45 3 34 11 74 18 88 23 40 222 299 227 294 2 -3 6 -29 7 -57z m-697 -354
c4 -5 37 -48 72 -95 123 -161 126 -165 121 -255 l-2 -30 -25 30 c-43 51 -138
177 -182 241 -39 59 -48 88 -43 154 l2 25 25 -30 c13 -16 28 -34 32 -40z m700
2 c-4 -61 -13 -82 -73 -154 -17 -21 -27 -35 -103 -136 -40 -53 -75 -97 -78
-97 -9 0 -2 103 9 125 22 45 233 325 245 325 2 0 3 -28 0 -63z m-1 -334 c2
-51 -5 -80 -29 -107 -5 -6 -51 -68 -104 -138 -52 -71 -99 -128 -104 -128 -6 0
-10 24 -10 54 0 50 4 60 61 137 33 46 86 121 117 166 31 45 59 80 61 77 3 -2
6 -30 8 -61z m-726 39 c27 -31 112 -143 166 -218 44 -61 52 -79 54 -123 2 -28
0 -53 -3 -57 -12 -11 -50 18 -76 59 -15 23 -61 87 -102 142 -51 68 -75 108
-73 125 0 14 1 40 2 58 1 36 10 40 32 14z m11 -359 c14 -16 34 -41 44 -58 10
-16 27 -39 37 -50 9 -10 43 -58 75 -105 55 -81 57 -88 54 -138 -4 -46 -6 -51
-19 -40 -18 15 -218 279 -231 305 -7 14 -9 94 -3 111 3 8 21 -2 43 -25z m716
-33 c-3 -42 -11 -69 -26 -88 -12 -15 -53 -70 -91 -122 -39 -52 -84 -110 -100
-128 -30 -32 -31 -32 -32 -10 0 13 -2 32 -4 42 -5 28 19 80 62 134 21 26 40
49 43 52 3 3 18 25 34 50 41 64 96 130 108 130 7 0 9 -22 6 -60z m2450 -615
c53 -118 89 -196 158 -343 24 -51 44 -95 44 -98 0 -2 14 -32 30 -66 17 -34 30
-67 30 -75 0 -7 5 -13 10 -13 6 0 10 -5 10 -10 0 -9 20 -56 130 -295 15 -33
51 -112 80 -175 29 -63 63 -140 77 -170 28 -60 67 -147 103 -225 12 -27 46
-102 75 -165 88 -192 298 -654 388 -855 47 -104 96 -215 110 -245 24 -53 147
-340 147 -343 0 -1 -653 -2 -1450 -2 -1070 0 -1450 3 -1450 11 0 10 15 48 70
169 31 69 157 347 183 405 14 30 45 100 70 155 25 55 61 136 82 180 20 44 41
89 45 100 8 21 289 641 346 763 19 41 34 75 34 77 0 2 16 39 36 82 20 43 56
123 81 178 25 55 56 125 70 155 14 30 93 204 175 385 82 182 160 353 173 380
13 28 35 77 50 109 15 36 29 56 35 50 5 -5 31 -58 58 -119z m-5524 -37 c100
-209 128 -269 281 -603 73 -159 154 -334 179 -388 25 -55 46 -100 46 -102 0
-2 18 -42 40 -89 45 -96 410 -900 501 -1103 32 -72 59 -136 59 -142 0 -6 5
-11 10 -11 6 0 10 -6 10 -13 0 -7 9 -31 19 -53 11 -21 46 -100 79 -174 79
-178 99 -223 132 -295 15 -33 26 -62 25 -65 -2 -3 -655 -5 -1452 -5 -1437 0
-1448 1 -1445 20 3 18 63 154 150 345 16 36 40 88 52 115 12 28 38 83 56 123
19 41 34 75 34 77 0 1 20 45 44 96 24 52 53 114 64 139 71 159 155 344 168
368 7 15 14 30 14 34 0 3 20 48 44 100 24 51 62 134 84 183 22 50 61 134 86
188 25 54 46 99 46 101 0 2 23 52 50 110 28 58 50 108 50 110 0 2 27 61 60
131 33 70 60 128 60 130 0 2 15 36 34 77 48 104 90 195 153 333 30 66 71 154
90 195 74 159 93 201 93 210 0 27 17 -2 84 -142z m34 49 c7 -16 8 -26 3 -23
-5 3 -14 20 -20 38 -13 38 0 26 17 -15z m-151 -3443 c-3 -3 -12 -4 -19 -1 -8
3 -5 6 6 6 11 1 17 -2 13 -5z m140 0 c-3 -3 -12 -4 -19 -1 -8 3 -5 6 6 6 11 1
17 -2 13 -5z"/>
</g>
</svg>
